<?xml version="1.0" encoding="utf-8"?><svg xmlns="http://www.w3.org/2000/svg" xmlns:xlink="http://www.w3.org/1999/xlink"><symbol viewBox="0 0 68 90" id="adv-icon1" xmlns="http://www.w3.org/2000/svg"><path d="M52.324 67.605l-37.506-.006a1.875 1.875 0 000 3.75l37.506.006a1.875 1.875 0 000-3.75zm-7.506 7.5h-22.5a1.874 1.874 0 100 3.75h22.5a1.874 1.874 0 100-3.75zM34 22.5c-11.372 0-20.624 9.253-20.624 20.625 0 11.373 9.252 20.625 20.624 20.625 11.373 0 20.625-9.252 20.625-20.625C54.625 31.753 45.373 22.5 34 22.5zM17.315 45h7.349c.207 5.108 1.262 10.187 3.093 13.771-5.654-2.264-9.737-7.502-10.442-13.77zm7.349-3.75h-7.349c.705-6.269 4.788-11.506 10.443-13.77-1.831 3.583-2.886 8.663-3.094 13.77zM34 60c-2.148 0-5.17-5.809-5.55-15h11.1c-.38 9.191-3.401 15-5.55 15zm-5.55-18.75c.38-9.19 3.402-15 5.55-15 2.149 0 5.17 5.81 5.55 15h-11.1zm11.793 17.521c1.832-3.584 2.886-8.663 3.094-13.77h7.349c-.705 6.268-4.788 11.506-10.443 13.77zm3.094-17.52c-.208-5.108-1.262-10.188-3.094-13.772 5.655 2.265 9.738 7.502 10.443 13.771h-7.349z"/><path d="M60.25 11.25H56.5V7.376C56.5 3.279 53.034-.041 49 0a6.816 6.816 0 00-1.675.237L7.349 11.29c-3.947.214-7.098 3.46-7.098 7.46V82.5c0 4.135 3.363 7.5 7.5 7.5h52.5c4.136 0 7.5-3.364 7.5-7.5V18.75c0-4.137-3.364-7.5-7.5-7.5zM48.288 3.86c2.188-.558 4.462 1.214 4.462 3.516v3.874H21.565l26.723-7.39zM64 82.5a3.755 3.755 0 01-3.75 3.75H7.75A3.755 3.755 0 014 82.5V18.75A3.755 3.755 0 017.75 15h52.5A3.755 3.755 0 0164 18.75V82.5z"/></symbol><symbol viewBox="0 0 72 90" id="adv-icon2" xmlns="http://www.w3.org/2000/svg"><path d="M14.622 75.734l-4.378-5.209a1.757 1.757 0 00-2.69 0l-4.38 5.21c-.116.139-.247.281-.36.403a8.223 8.223 0 00.223 11.433l.017.018A8.232 8.232 0 008.899 90c2.21 0 4.288-.859 5.851-2.418a8.198 8.198 0 002.426-5.843 8.22 8.22 0 00-2.192-5.6 11.992 11.992 0 01-.362-.405zm-2.354 9.359a4.74 4.74 0 01-3.37 1.391 4.739 4.739 0 01-3.355-1.378l-.013-.013a4.719 4.719 0 01-.135-6.567c.14-.152.306-.333.47-.53L8.9 74.389l3.032 3.607c.164.195.33.378.472.531a4.715 4.715 0 011.258 3.213 4.704 4.704 0 01-1.393 3.354zM71.39 12.555a12.47 12.47 0 00-3.678-8.878A12.472 12.472 0 0058.835 0a12.472 12.472 0 00-8.878 3.677l-8.442 8.442-1.862-1.863a1.759 1.759 0 00-2.486 0l-5.984 5.983a1.758 1.758 0 000 2.486l1.863 1.863L10.884 42.75l-.126.128-.015.016c-2.974 3.07-4.156 7.332-3.247 11.428a6.92 6.92 0 00-1.103 10.675 6.867 6.867 0 004.888 2.025c1.846 0 3.582-.72 4.888-2.025.341-.341.642-.711.901-1.106a12.623 12.623 0 0011.57-3.386L50.8 38.343l1.863 1.863a1.758 1.758 0 002.486 0l5.983-5.983c.686-.686.686-1.8 0-2.486l-1.863-1.863 8.442-8.442a12.47 12.47 0 003.677-8.877zM20.066 38.54h6.417a1.758 1.758 0 000-3.516h-2.902l11.95-11.95 11.95 11.95h-5.105a1.758 1.758 0 000 3.516h3.256l-3.806 3.806H16.26l3.806-3.806zm6.087 19.48a9.09 9.09 0 01-9.417 2.128 1.758 1.758 0 00-2.247 1.08c-.169.484-.44.916-.807 1.283a3.375 3.375 0 01-2.402.995c-.908 0-1.76-.353-2.402-.995a3.375 3.375 0 01-.996-2.402c0-.908.354-1.76.996-2.403a3.363 3.363 0 011.283-.806 1.758 1.758 0 001.08-2.247A8.983 8.983 0 0112.8 45.86h25.512L26.154 58.019zm27.753-21.543L34.913 17.482l3.497-3.497L57.405 32.98l-3.498 3.497zm2.877-9.089L44.001 14.605l8.442-8.442a8.98 8.98 0 016.392-2.647 8.98 8.98 0 016.391 2.647 8.98 8.98 0 012.648 6.392 8.98 8.98 0 01-2.648 6.391l-8.442 8.442z"/><path d="M36.021 36.109a1.776 1.776 0 00-1.643-1.084 1.77 1.77 0 00-1.643 1.192 1.77 1.77 0 00.571 1.941 1.775 1.775 0 002.02.116 1.774 1.774 0 00.695-2.165z"/></symbol><symbol viewBox="0 0 102 65" id="adv-icon3" xmlns="http://www.w3.org/2000/svg"><path d="M93.133 52.75h6.617a1.623 1.623 0 001.625-1.625V8.875A8.13 8.13 0 0093.25.75H8.75A8.133 8.133 0 00.625 8.875v42.25A1.625 1.625 0 002.25 52.75h6.618a11.4 11.4 0 005.405 8.125H2.25a1.625 1.625 0 100 3.25h97.5a1.623 1.623 0 001.625-1.625 1.624 1.624 0 00-1.625-1.625H87.727a11.402 11.402 0 005.406-8.125zM3.875 12.125h22.75v16.25H3.875v-16.25zm0 19.5H28.25A1.625 1.625 0 0029.875 30V10.5a1.625 1.625 0 00-1.625-1.625H3.875A4.882 4.882 0 018.75 4h84.5a4.881 4.881 0 014.875 4.875v26h-52V10.5A1.625 1.625 0 0044.5 8.875h-9.75a1.625 1.625 0 00-1.625 1.625v24.375h-22.75A1.625 1.625 0 008.75 33.25H3.875v-1.625zm32.5-17.875v-1.625h6.5v1.625h-6.5zm6.5 3.25v27.625h-6.5V17h6.5zm-39 19.5h3.25v3.25h-3.25V36.5zm4.993 13H3.875V43H8.75a1.625 1.625 0 001.625-1.625v-3.25h22.75v8.125a1.625 1.625 0 001.625 1.625h9.75a1.625 1.625 0 001.625-1.625v-8.125h52V49.5h-4.992a11.374 11.374 0 00-22.515 0H31.383a11.374 11.374 0 00-22.515 0zm11.257 9.75a8.125 8.125 0 118.125-8.125 8.133 8.133 0 01-8.125 8.125zm5.852 1.625a11.402 11.402 0 005.406-8.125h39.235a11.4 11.4 0 005.405 8.125H25.977zm55.898-1.625A8.125 8.125 0 1190 51.125a8.133 8.133 0 01-8.125 8.125z"/><path d="M81.875 46.25a4.875 4.875 0 100 9.75 4.875 4.875 0 000-9.75zm0 6.5a1.625 1.625 0 110-3.25 1.625 1.625 0 010 3.25zM20.125 56a4.875 4.875 0 100-9.75 4.875 4.875 0 000 9.75zm0-6.5a1.625 1.625 0 110 3.25 1.625 1.625 0 010-3.25zM51 31.625h19.5A1.625 1.625 0 0072.125 30V10.5A1.625 1.625 0 0070.5 8.875H51a1.625 1.625 0 00-1.625 1.625V30A1.625 1.625 0 0051 31.625zm1.625-3.25V17h16.25v11.375h-16.25zm16.25-16.25v1.625h-16.25v-1.625h16.25zm6.5 19.5h19.5A1.625 1.625 0 0096.5 30V10.5a1.625 1.625 0 00-1.625-1.625h-19.5A1.625 1.625 0 0073.75 10.5V30a1.625 1.625 0 001.625 1.625zM77 28.375V17h16.25v11.375H77zm16.25-16.25v1.625H77v-1.625h16.25zM60.75 39.75H49.375a1.625 1.625 0 100 3.25H60.75a1.625 1.625 0 100-3.25zm-8.125 4.875h-3.25a1.625 1.625 0 100 3.25h3.25a1.625 1.625 0 100-3.25zM67.25 39.75h-1.625a1.625 1.625 0 100 3.25h1.625a1.625 1.625 0 100-3.25z"/></symbol><symbol viewBox="0 0 90 90" id="adv-icon4" xmlns="http://www.w3.org/2000/svg"><path d="M55.547 46.055H34.454a1.758 1.758 0 000 3.515h21.093a1.758 1.758 0 000-3.515zm-2.637 7.031H37.09a1.758 1.758 0 000 3.516h15.82a1.758 1.758 0 000-3.516zm35.333 33.398c-.97 0-1.758.79-1.758 1.758A1.76 1.76 0 0088.243 90 1.76 1.76 0 0090 88.242a1.76 1.76 0 00-1.757-1.758z"/><path d="M81.211 86.484h-1.054v-5.273c0-2.92-3.657-5.109-11.178-6.692-4.507-.949-10.044-1.598-16.069-1.901v-8.985h9.669c.97 0 1.757-.787 1.757-1.758V40.781c0-.97-.787-1.758-1.758-1.758H52.91v-3.515H78.4c.97 0 1.758-.787 1.758-1.758V21.445c0-.97-.787-1.758-1.758-1.758H52.91V1.758C52.91.788 52.123 0 51.154 0H38.848c-.97 0-1.758.787-1.758 1.758v17.93H11.602c-.97 0-1.758.787-1.758 1.757V33.75c0 .97.787 1.758 1.758 1.758H37.09v3.515h-9.668c-.97 0-1.758.787-1.758 1.758v21.094c0 .97.788 1.758 1.758 1.758h9.668v8.985c-6.024.303-11.561.952-16.068 1.9-7.521 1.584-11.178 3.773-11.178 6.693v5.273H1.758A1.76 1.76 0 000 88.242C0 89.211.79 90 1.758 90h79.453a1.76 1.76 0 001.758-1.758 1.76 1.76 0 00-1.758-1.758zM40.606 3.516h8.789v16.172h-8.79V3.515zM13.36 23.203h63.28v8.79H13.36v-8.79zm27.246 12.305h8.789v3.515h-8.79v-3.515zM29.18 42.539h31.64v17.578H29.18V42.54zm11.426 21.094h8.789v8.849a161.885 161.885 0 00-8.79 0v-8.85zM76.64 86.484H13.36V82.97h24.61a1.76 1.76 0 001.757-1.758 1.76 1.76 0 00-1.758-1.758H16.376c1.367-.521 3.337-1.1 6.181-1.659 6.095-1.197 14.065-1.856 22.443-1.856 8.379 0 16.35.659 22.443 1.856 2.844.559 4.814 1.138 6.181 1.66H52.032c-.97 0-1.758.788-1.758 1.757a1.76 1.76 0 001.758 1.758H76.64v3.515z"/><path d="M45 79.453c-.97 0-1.757.79-1.757 1.758A1.76 1.76 0 0045 82.969a1.76 1.76 0 001.758-1.758A1.76 1.76 0 0045 79.453z"/></symbol><symbol viewBox="0 0 42 42" id="close-square" xmlns="http://www.w3.org/2000/svg"><path d="M36.98.993L20.986 16.987 4.99.993A2.829 2.829 0 00.993 4.992l15.994 15.994L.993 36.98a2.829 2.829 0 003.998 4l15.995-15.995L36.98 40.979a2.829 2.829 0 003.998 0 2.829 2.829 0 000-3.999L24.984 20.986 40.978 4.992A2.829 2.829 0 0036.98.993z"/><defs><linearGradient id="epaint0_linear" x1=".993" y1=".993" x2="40.978" y2="40.979" gradientUnits="userSpaceOnUse"><stop offset=".495" stop-color="#FDC455"/><stop offset="1" stop-color="#BC8925"/></linearGradient></defs></symbol><symbol viewBox="0 0 512.002 512.002" id="next" xmlns="http://www.w3.org/2000/svg"><path d="M388.425 241.951L151.609 5.79c-7.759-7.733-20.321-7.72-28.067.04-7.74 7.759-7.72 20.328.04 28.067l222.72 222.105-222.728 222.104c-7.759 7.74-7.779 20.301-.04 28.061a19.8 19.8 0 0014.057 5.835 19.79 19.79 0 0014.017-5.795l236.817-236.155c3.737-3.718 5.834-8.778 5.834-14.05s-2.103-10.326-5.834-14.051z"/></symbol><symbol viewBox="0 0 17 18" id="phone" xmlns="http://www.w3.org/2000/svg"><g clip-path="url(#gclip0)"><path d="M3.464 11.752a18.034 18.034 0 005.999 4.699c.877.415 2.05.909 3.357.993.081.004.159.007.24.007.877 0 1.581-.303 2.155-.926a.066.066 0 00.014-.018c.205-.247.437-.469.68-.705.166-.158.335-.324.497-.493.75-.782.75-1.775-.007-2.532l-2.117-2.117c-.36-.374-.79-.571-1.24-.571-.45 0-.884.197-1.254.567l-1.261 1.261a6.2 6.2 0 00-.349-.183 4.363 4.363 0 01-.387-.211c-1.149-.73-2.191-1.68-3.188-2.903-.504-.638-.842-1.173-1.078-1.72.33-.299.64-.612.94-.918.106-.11.215-.219.324-.328.38-.38.585-.82.585-1.268 0-.448-.2-.888-.585-1.268l-1.05-1.05c-.123-.123-.239-.243-.359-.366-.232-.24-.475-.487-.715-.708C4.302.638 3.876.45 3.425.45c-.447 0-.877.187-1.254.546L.854 2.314c-.48.48-.75 1.06-.807 1.734-.067.842.088 1.736.49 2.818.616 1.673 1.546 3.226 2.927 4.886zM.907 4.122c.042-.469.222-.86.56-1.198l1.31-1.31c.204-.198.43-.3.648-.3.215 0 .434.102.634.307.236.218.458.447.698.69l.366.373 1.05 1.05c.218.219.331.44.331.659 0 .218-.113.44-.331.659-.11.109-.218.221-.328.33-.327.332-.634.645-.972.945l-.018.017c-.292.293-.246.571-.176.782l.01.029c.272.651.65 1.271 1.237 2.01 1.057 1.304 2.17 2.315 3.396 3.094.152.098.314.176.465.253.141.07.271.138.388.212.014.007.024.014.038.02.117.06.23.089.342.089.282 0 .465-.18.525-.24l1.317-1.317c.205-.204.427-.314.645-.314.268 0 .486.166.623.314l2.125 2.12c.422.423.419.881-.011 1.329-.148.158-.303.31-.469.468-.246.24-.503.486-.736.764-.405.437-.887.642-1.51.642a2.83 2.83 0 01-.184-.008c-1.155-.073-2.23-.524-3.037-.908a17.133 17.133 0 01-5.71-4.474C2.82 9.627 1.935 8.155 1.351 6.577.988 5.608.85 4.83.907 4.122z"/></g><defs><clipPath id="gclip0"><path transform="translate(0 .451)" d="M0 0h17v17H0z"/></clipPath></defs></symbol><symbol viewBox="0 0 30 40" id="traditions-icon1" xmlns="http://www.w3.org/2000/svg"><path d="M28.044 13.913h-9.131v-2.609h3.913c.72 0 1.304-.584 1.304-1.304V4.783c0-.72-.583-1.305-1.304-1.305h-3.913V1.304c0-.72-.584-1.304-1.304-1.304H12.39c-.72 0-1.304.584-1.304 1.304v2.174H7.174c-.72 0-1.305.584-1.305 1.305V10c0 .72.584 1.304 1.305 1.304h3.913v2.609h-9.13c-.72 0-1.305.584-1.305 1.304v5.218c0 .72.584 1.304 1.305 1.304h9.13v3.243l-3.699-.616a1.305 1.305 0 00-1.518 1.286v5.218c0 .637.46 1.181 1.09 1.286l4.127.688v5.852c0 .72.584 1.304 1.304 1.304h5.218c.72 0 1.304-.584 1.304-1.304v-4.547l3.699.616a1.304 1.304 0 001.519-1.287v-5.217c0-.638-.461-1.182-1.09-1.287l-4.128-.688V21.74h9.13c.721 0 1.305-.584 1.305-1.304v-5.217c0-.721-.584-1.305-1.304-1.305zm-1.305 5.218h-9.13c-.72 0-1.305.584-1.305 1.304v6.956c0 .638.461 1.182 1.09 1.287l4.128.688v2.573l-3.699-.617a1.305 1.305 0 00-1.519 1.287v4.782h-2.608V31.74c0-.637-.461-1.182-1.09-1.287l-4.128-.687v-2.573l3.699.616a1.305 1.305 0 001.519-1.286v-6.087c0-.72-.584-1.305-1.305-1.305h-9.13v-2.608h9.13c.72 0 1.305-.584 1.305-1.305V10c0-.72-.584-1.304-1.305-1.304H8.478V6.087h3.913c.72 0 1.305-.584 1.305-1.304V2.609h2.608v2.174c0 .72.584 1.304 1.305 1.304h3.913v2.609h-3.913c-.72 0-1.305.584-1.305 1.304v5.217c0 .72.584 1.305 1.305 1.305h9.13v2.609z"/></symbol><symbol viewBox="0 0 37 37" id="traditions-icon2" xmlns="http://www.w3.org/2000/svg"><path d="M36.828 5.863a1.212 1.212 0 00-.978-.825l-4.15-.602-1.855-3.76a1.212 1.212 0 00-2.174 0l-1.855 3.76-4.15.602a1.212 1.212 0 00-.672 2.068l3.003 2.927-.709 4.132a1.212 1.212 0 001.759 1.278l3.711-1.951 3.711 1.951a1.212 1.212 0 001.76-1.278l-.71-4.132 3.003-2.927c.33-.322.45-.804.306-1.243zm-5.457 2.879c-.286.278-.416.68-.349 1.073l.401 2.339-2.1-1.105a1.212 1.212 0 00-1.129 0l-2.101 1.105.401-2.34a1.212 1.212 0 00-.348-1.072l-1.7-1.657 2.349-.342c.395-.057.736-.305.913-.663l1.05-2.129 1.05 2.13c.177.357.519.605.913.662l2.35.342-1.7 1.657z"/><path d="M36.159 21.63a1.212 1.212 0 00-1.436.136 13.698 13.698 0 01-9.177 3.517 13.68 13.68 0 01-9.699-4.015c-5.154-5.154-5.373-13.445-.498-18.876A1.213 1.213 0 0014.15.407a18.554 18.554 0 00-8.59 4.86c-7.264 7.264-7.264 19.022 0 26.287 7.257 7.257 19.023 7.265 26.288 0a18.554 18.554 0 004.86-8.59 1.212 1.212 0 00-.55-1.333zm-6.026 8.21c-6.302 6.302-16.556 6.302-22.858 0-6.317-6.317-6.317-16.541 0-22.859a16.023 16.023 0 013.969-2.899c-3.202 6.118-2.203 13.81 2.889 18.9 5.09 5.091 12.782 6.091 18.9 2.889a16.022 16.022 0 01-2.9 3.969z"/></symbol><symbol viewBox="0 0 40 40" id="traditions-icon3" xmlns="http://www.w3.org/2000/svg"><path d="M38.696 18.696h-1.353c-.637-8.548-7.482-15.4-16.039-16.038V1.305a1.304 1.304 0 10-2.608 0v1.353c-8.55.637-15.401 7.482-16.039 16.038H1.304a1.304 1.304 0 000 2.609h1.354c.636 8.548 7.481 15.4 16.038 16.038v1.353a1.304 1.304 0 002.608 0v-1.353c8.55-.637 15.401-7.482 16.039-16.038h1.353a1.304 1.304 0 100-2.609zm-3.972 0h-2.62a12.116 12.116 0 00-2.627-6.328l1.852-1.852a14.717 14.717 0 013.395 8.18zm-13.42-13.42a14.717 14.717 0 018.18 3.395l-1.852 1.853a12.118 12.118 0 00-6.328-2.627V5.276zm2.55 16.734a4.46 4.46 0 00.294-.705h5.328a9.518 9.518 0 01-1.856 4.47l-3.766-3.765zm1.921 5.61a9.52 9.52 0 01-4.47 1.856v-5.328a4.3 4.3 0 00.704-.294l3.766 3.766zm-1.627-8.924a4.309 4.309 0 00-.294-.705l3.766-3.766a9.518 9.518 0 011.856 4.471h-5.328zm-2.844-8.171a9.517 9.517 0 014.471 1.856l-3.766 3.766a4.312 4.312 0 00-.705-.294v-5.328zm-2.608-5.249v2.62a12.117 12.117 0 00-6.328 2.628L10.515 8.67a14.717 14.717 0 018.18-3.395zm-2.844 16.029c.078.245.177.48.294.705l-3.766 3.766a9.518 9.518 0 01-1.856-4.471h5.328zm-5.328-2.609a9.518 9.518 0 011.856-4.47l3.766 3.765a4.46 4.46 0 00-.294.705h-5.328zm3.7-6.315a9.517 9.517 0 014.472-1.856v5.328a4.28 4.28 0 00-.705.294l-3.766-3.766zm-5.553-1.865l1.852 1.852a12.118 12.118 0 00-2.627 6.328h-2.62a14.717 14.717 0 013.395-8.18zM5.276 21.305h2.62a12.117 12.117 0 002.627 6.328l-1.852 1.852a14.717 14.717 0 01-3.395-8.18zm13.42 13.42a14.716 14.716 0 01-8.18-3.395l1.852-1.853a12.118 12.118 0 006.328 2.627v2.62zm0-5.249a9.52 9.52 0 01-4.471-1.856l3.766-3.766c.224.118.46.217.705.294v5.328zM20 21.74c-.958 0-1.74-.781-1.74-1.74 0-.958.782-1.739 1.74-1.739s1.74.781 1.74 1.74c0 .958-.782 1.739-1.74 1.739zm1.304 12.985v-2.62a12.116 12.116 0 006.328-2.628l1.853 1.853a14.717 14.717 0 01-8.18 3.395zm10.025-5.24l-1.852-1.852a12.118 12.118 0 002.627-6.328h2.62a14.716 14.716 0 01-3.395 8.18z"/></symbol><symbol viewBox="0 0 36 40" id="traditions-icon4" xmlns="http://www.w3.org/2000/svg"><path d="M30.301 20l5.04-8.727a1.307 1.307 0 00-1.132-1.959H24.132L19.13.652a1.307 1.307 0 00-2.262 0l-5 8.662H1.79a1.307 1.307 0 00-1.13 1.959L5.699 20l-5.04 8.727a1.307 1.307 0 001.132 1.959h10.077l5.001 8.662c.503.87 1.76.869 2.262 0l5-8.662H34.21a1.307 1.307 0 001.131-1.959L30.301 20zm1.647-8.074l-3.154 5.462-3.154-5.462h6.308zM18 3.916l3.116 5.398h-6.232L18 3.917zm-13.947 8.01h6.307l-3.154 5.462-3.154-5.462zm0 16.148l3.153-5.462 3.154 5.462H4.053zM18 36.084l-3.116-5.398h6.232L18 36.083zm4.624-8.01h-9.248L8.714 20l4.662-8.074h9.248L27.286 20l-4.662 8.074zm3.016 0l3.154-5.462 3.154 5.462H25.64z"/></symbol><symbol viewBox="0 0 38 28" id="traditions-icon5" xmlns="http://www.w3.org/2000/svg"><path d="M36.887 7.32h-5.64V3.98a3.344 3.344 0 00-3.34-3.34h-4.454a3.344 3.344 0 00-3.34 3.34v3.34h-2.226V3.98a3.344 3.344 0 00-3.34-3.34h-4.453a3.344 3.344 0 00-3.34 3.34v3.34h-5.64a1.113 1.113 0 000 2.227H2.3v16.7a1.113 1.113 0 002.226 0V14h2.227v12.246a1.113 1.113 0 002.226 0v-3.34h6.68v3.34a1.113 1.113 0 102.227 0V14h2.226v12.246a1.113 1.113 0 002.227 0v-3.34h6.68v3.34a1.113 1.113 0 002.226 0V14h2.227v12.246a1.113 1.113 0 102.226 0v-16.7h1.188a1.113 1.113 0 000-2.226zM22.34 3.98c0-.613.5-1.113 1.113-1.113h4.453c.614 0 1.114.5 1.114 1.113v12.247h-6.68V3.98zm-13.36 0c0-.613.5-1.113 1.114-1.113h4.453c.614 0 1.113.5 1.113 1.113v12.247H8.98V3.98zm-4.453 7.793V9.547h2.227v2.226H4.527zM8.98 20.68v-2.227h6.68v2.227H8.98zm8.907-8.907V9.547h2.226v2.226h-2.226zm4.453 8.907v-2.227h6.68v2.227h-6.68zm11.133-8.907h-2.227V9.547h2.227v2.226z"/></symbol><symbol viewBox="0 0 17 37" id="traditions-icon6" xmlns="http://www.w3.org/2000/svg"><path d="M16.882 26.97a1.084 1.084 0 00-.768-.717l-4.312-1.078-1.534-2.45a4.549 4.549 0 001.487-.995 4.537 4.537 0 001.338-3.23v-2.394l1.84-1.534a4.555 4.555 0 001.643-3.509V1.084C16.576.485 16.091 0 15.492 0H1.56C.961 0 .476.485.476 1.084v9.98c0 1.359.599 2.638 1.643 3.508l1.84 1.534V18.5c0 1.22.475 2.367 1.338 3.23a4.55 4.55 0 001.487.994L5.25 25.175.938 26.253a1.084 1.084 0 00-.568 1.748l2.854 3.407-.307 4.433a1.085 1.085 0 001.487 1.08l4.122-1.66 4.122 1.66a1.084 1.084 0 001.487-1.08l-.307-4.433L16.682 28c.24-.286.315-.676.2-1.031zm-4.95-24.802h2.476v8.895a2.39 2.39 0 01-.863 1.843l-1.613 1.345V2.168zM5.12 14.251l-1.613-1.345a2.393 2.393 0 01-.863-1.843V2.168H5.12v12.083zM7.288 2.168h2.476v13.89c-.072.06-.51.483-1.238.483-.617 0-1.001-.287-1.238-.484V2.168zM6.128 18.5v-.595a3.98 3.98 0 004.797 0v.595a2.397 2.397 0 01-2.399 2.4 2.398 2.398 0 01-2.399-2.4zm5.758 11.85c-.18.215-.27.492-.25.771l.216 3.143-2.92-1.178a1.084 1.084 0 00-.81 0L5.2 34.264l.217-3.143c.02-.28-.07-.556-.25-.77l-2.023-2.415 3.056-.764c.271-.068.507-.239.655-.476l1.671-2.67 1.67 2.67c.15.237.385.408.657.476l3.055.764-2.022 2.414z"/></symbol><symbol viewBox="0 0 37 37" id="traditions-icon7" xmlns="http://www.w3.org/2000/svg"><path d="M23.27 12.003l-6.933-3.088a.824.824 0 00-.918.167.812.812 0 00-.168.918l3.089 6.934a.817.817 0 001.092.415.845.845 0 00.408-1.085l-.7-1.566 1.887-1.886 1.566.699c.415.182.903 0 1.093-.415a.833.833 0 00-.415-1.093zm-4.85 1.078l-.794-1.777 1.784.794-.99.983z"/><path d="M33.06 17.473h-6.046l2.513-2.513a3.943 3.943 0 000-5.572l-8.245-8.237A3.912 3.912 0 0018.5 0c-1.049 0-2.04.408-2.782 1.15L7.48 9.389a3.943 3.943 0 000 5.572l2.513 2.513H3.948A3.95 3.95 0 000 21.413V33.06C0 35.23 1.77 37 3.94 37h11.647c1.15 0 2.192-.503 2.913-1.297A3.922 3.922 0 0021.413 37H33.06c2.17 0 3.94-1.77 3.94-3.94V21.413c0-2.17-1.77-3.94-3.94-3.94zM17.473 33.06a1.887 1.887 0 01-1.886 1.886H3.94a1.887 1.887 0 01-1.886-1.886V21.413c0-1.041.845-1.886 1.886-1.886h8.107l3.67 3.67c.496.496 1.1.846 1.756 1.02v8.843zM18.5 22.295c-.503 0-.976-.197-1.333-.554l-8.237-8.23a1.886 1.886 0 010-2.666l8.237-8.238c.357-.356.83-.553 1.333-.553s.976.197 1.333.553l8.238 8.238c.735.736.735 1.93 0 2.666l-8.238 8.237c-.357.35-.83.547-1.333.547zM34.946 33.06a1.887 1.887 0 01-1.886 1.886H21.413a1.887 1.887 0 01-1.886-1.886v-8.843a3.908 3.908 0 001.755-1.02l3.671-3.67h8.107c1.041 0 1.886.845 1.886 1.886V33.06z"/><path d="M12.404 25.478A2.602 2.602 0 009.81 22.87H7.954a.822.822 0 00-.824.823v7.095c0 .458.372.822.824.822H9.81a2.599 2.599 0 002.593-2.593c0-.684-.27-1.31-.714-1.77a2.584 2.584 0 00.714-1.77zM9.81 29.95H8.777v-1.887H9.81a.943.943 0 010 1.886zm0-3.547H8.777v-1.887H9.81a.943.943 0 010 1.886zm19.768 2.68a2.717 2.717 0 11-1.996-4.56 2.69 2.69 0 012.186 1.1.833.833 0 001.158.175.833.833 0 00.174-1.158 4.408 4.408 0 00-3.518-1.77c-2.41 0-4.37 1.96-4.37 4.37 0 2.411 1.96 4.37 4.37 4.37a4.378 4.378 0 003.212-1.413.827.827 0 00-.05-1.165.827.827 0 00-1.166.05z"/></symbol></svg>