<svg width="334" height="371" viewBox="0 0 334 371" fill="none" xmlns="http://www.w3.org/2000/svg">
<g opacity="0.05" clip-path="url(#clip0)">
<path d="M308.946 69.1299H126.036V106.086H308.946V69.1299Z" fill="#515151"/>
<path fill-rule="evenodd" clip-rule="evenodd" d="M192.213 198.326C185.551 198.829 178.855 198.659 172.227 197.817L172.145 190.608L175.166 187.854L172.133 187.903L172.121 141.456C171.978 129.911 174.253 139.118 175.414 128.952C173.413 130.489 174.432 130.419 172.394 131.754L172.797 96.9367L181.04 97.327C181.862 100.593 182.147 103.969 181.883 107.326C181.489 110.43 180.676 113.467 179.466 116.354C181.171 115.077 179.87 116.663 180.685 114.463C182.521 108.277 182.862 101.745 181.68 95.4027C181.154 93.0467 180.763 90.6629 180.507 88.2627C180.021 84.3992 180.649 84.8591 179.099 81.8578C178.206 79.9423 177.434 77.9729 176.788 75.9612L174.62 70.7C174.571 70.5006 174.55 70.3218 174.501 70.1224C174.583 69.0506 174.356 67.9778 173.846 67.0309C173.336 66.0841 172.564 65.3027 171.623 64.7793C172.676 69.0694 173.209 68.8818 168.044 68.8818L130.146 68.8001C123.037 68.7153 125.017 67.8652 125.017 92.3411L125.05 163.049C125.089 163.928 125.061 164.809 124.969 165.684L124.235 167.847C121.626 169.832 100.102 171.332 95.1371 171.405C92.3166 171.438 88.4436 170.352 79.5815 170.364C67.8534 170.376 66.525 170.73 67.7927 171.169C71.0652 172.291 104.497 173.862 116.155 170.978C119.165 169.963 122.375 169.687 125.514 170.174C124.21 187.594 123.713 183.162 134.185 193.987L168.387 237.396C171.159 239.938 168.803 235.448 170.853 241.39C171.504 243.318 172.572 245.081 173.98 246.554C176.433 250.055 174.538 249.452 178.565 251.189C177.334 246.923 173.719 246.118 172.309 241.629C171.102 237.798 171.811 231.593 171.717 226.653C175.533 225.921 200.269 226.725 206.441 226.901C217.359 227.128 228.24 228.247 238.974 230.247C243.617 231.169 248.165 232.514 252.562 234.265L261.223 239.027C269.532 244.428 276.221 251.971 280.582 260.855C285.05 269.995 287.167 280.1 286.742 290.26C286.327 296.37 284.798 302.354 282.229 307.916C279.669 311.922 278.117 317.253 273.461 322.085L264.387 331.258C257.739 337.39 241.437 344.364 231.926 343.347C230.176 344.561 228.126 345.271 226 345.402C218.363 345.747 210.713 345.637 203.089 345.072C196.584 345.096 177.073 345.898 172.048 344.73C170.662 340.062 170.522 317.192 172.178 312.878L169.43 313.093L146.92 282.932C144.801 280.533 143.32 278.028 141.376 275.71L138.947 272.189C138.868 272.035 138.781 271.885 138.686 271.741C137.418 269.72 134.161 266.598 130.288 260.514C128.641 257.924 128.356 258.505 127.243 256.874C125.49 254.296 131.425 254.036 128.772 252.584L127.195 254.166C129.685 256.659 125.666 261.518 125.906 267.345C126.094 272.27 125.881 277.211 125.881 282.152L126.106 370.374C126.248 370.48 126.497 370.41 126.579 370.61C126.673 370.824 126.946 370.8 127.076 370.837L247.588 371L275.569 365.351C281.589 363.318 289.029 360.093 292.511 359.016C304.751 351.891 314.941 341.735 322.093 329.53L329.521 314.854C330.136 312.892 330.631 310.894 331.004 308.872C335.505 295.222 335.032 270.204 328.929 256.838L321.441 242.231C317.65 236.272 313.048 230.867 307.769 226.169C306.122 224.68 305.14 224.22 303.565 222.895C302.995 222.423 302.322 221.879 301.573 221.289C298.422 219.727 294.87 217.955 290.746 216.16C277.909 210.713 264.541 206.606 250.857 203.904C236.504 201.31 221.989 199.71 207.414 199.118C201.879 198.822 196.726 198.598 192.213 198.326Z" fill="#515151"/>
<path fill-rule="evenodd" clip-rule="evenodd" d="M144.658 39.4069L147.548 41.1314C151.863 43.1647 155.797 45.9182 159.182 49.2729L161.542 51.6509C162.097 52.2166 162.488 52.619 163.189 53.3875C164.279 54.5429 165.281 55.7787 166.185 57.0844C167.82 59.3082 170.046 63.0297 171.623 64.769C172.564 65.2948 173.335 66.0778 173.845 67.026C174.355 67.9742 174.583 69.048 174.501 70.121C174.55 70.3204 174.571 70.4992 174.62 70.6986L176.8 75.9599C177.437 77.9732 178.205 79.943 179.099 81.8565C180.649 84.8578 180.021 84.3979 180.507 88.2614C180.763 90.6616 181.154 93.0454 181.68 95.4014C182.862 101.744 182.521 108.276 180.685 114.462C179.87 116.661 181.171 115.076 179.466 116.353C178.945 117.064 175.851 127.38 175.414 128.951C174.253 139.116 167.996 131.988 168.138 143.536L167.392 189.223L175.166 187.853C178.467 186.888 181.597 185.413 184.44 183.481C186.324 182.347 187.509 181.4 188.814 180.456L201.109 170.481C202.403 169.319 203.633 168.087 204.794 166.793L205.458 166.109C211.483 159.163 216.771 151.614 221.238 143.582C221.772 142.67 222.171 141.687 222.424 140.662C223.822 136.006 227.031 129.011 227.316 123.81L229.366 97.15C229.46 94.536 229.424 97.87 229.13 94.893C228.975 93.3075 229.011 91.9008 228.893 90.3304C228.698 87.4666 228.354 84.6148 227.862 81.7865C227.671 80.9212 226.77 78.6522 226.676 78.3103L224.507 71.0311C223.455 68.8127 222.576 66.5167 221.878 64.1633C221.33 62.7979 220.906 61.3865 220.61 59.9458C220.895 55.928 210.577 40.8462 207.165 37.0644L198.173 27.8942C196.539 26.356 194.806 24.9269 192.984 23.6162C192.001 22.9295 191.349 22.4696 190.2 21.6315C190.081 21.5468 189.927 21.4288 189.808 21.3472C189.69 21.2655 189.535 21.1474 189.417 21.0748C189.311 20.9931 189.144 20.8752 189.026 20.7905L166.279 8.64328C164.999 8.18039 163.72 8.06257 162.5 7.62697C157.521 6.07431 152.448 4.83843 147.312 3.92682C141.785 2.69469 136.123 2.1711 130.464 2.36872L91.346 0.238817C87.5428 -0.0215528 82.6508 0.498971 78.2319 0.429385C59.6555 0.108688 40.8305 0.3931 22.2177 0.3931C17.9171 0.3931 13.4739 0.19344 9.91937 0.356814C0.775253 0.771301 0.881401 -1.78221 0.277859 2.67428L0.323397 284.171C0.323397 291.345 -0.5046 306.366 0.490183 312.547L47.797 312.441C47.1085 289.16 47.6999 265.075 47.6999 241.766V99.0628C47.6999 90.0955 46.4322 31.4288 48.543 28.3792C49.8108 27.175 97.7424 27.8134 101.652 28.2158C113.914 29.4895 124.614 30.2579 135.763 34.3121C139.132 35.1843 142.204 36.944 144.658 39.4069Z" fill="#515151"/>
<path fill-rule="evenodd" clip-rule="evenodd" d="M143.842 287.423C144.291 285.865 147.385 275.536 147.903 274.825C148.089 271.758 148.502 268.709 149.138 265.703C149.801 262.443 149.917 259.095 149.48 255.798L141.234 255.407L140.822 290.224C142.869 288.89 141.85 288.96 143.842 287.423Z" fill="#515151"/>
<path fill-rule="evenodd" clip-rule="evenodd" d="M127.907 167.562C127.398 186.483 127.141 195.942 127.137 195.938C127.137 195.938 127.173 196.007 127.243 196.162C127.325 196.316 120.016 196.344 105.315 196.246C90.6242 196.149 83.2785 196.098 83.2785 196.092C83.2785 196.092 80.4458 192.132 74.8077 184.202C69.1574 176.26 65.1803 170.414 62.8764 166.664C60.5684 162.906 59.4159 161.027 59.4189 161.027H127.977" fill="#515151"/>
<path fill-rule="evenodd" clip-rule="evenodd" d="M171.719 124.84L126.498 141.81L126.095 290.069L171.458 321.791L171.719 124.84Z" fill="#515151"/>
<path fill-rule="evenodd" clip-rule="evenodd" d="M171.126 321.555C170.65 329.291 170.958 337.056 172.048 344.73C177.073 345.898 184.452 360.223 190.958 360.199C229.697 360.045 221.511 363.554 221.878 363.285C231.392 364.311 250.156 359.703 256.804 353.57L273.461 342.128C278.15 337.626 282.476 332.762 286.399 327.582C288.886 323.682 298.755 311.202 298.874 307.656C299.289 295.92 307.272 268.951 302.95 258.964C299.938 252.015 283.057 235.46 275.63 231.463L259.765 225.188C253.871 222.678 247.811 220.578 241.628 218.901C232.281 216.929 217.768 217.942 207.199 217.637C201.027 217.458 175.533 225.921 171.717 226.653C171.811 231.593 171.101 237.798 172.309 241.629C173.719 246.118 177.334 246.923 178.565 251.189C174.538 249.452 176.433 250.055 173.98 246.554C173.082 245.496 172.273 244.366 171.563 243.175L158.579 292.517C161.766 292.269 156.447 315.374 156.304 316.696L171.456 321.791L171.126 321.555Z" fill="#515151"/>
<path d="M171.126 321.555C170.65 329.291 170.958 337.056 172.048 344.73C177.073 345.898 184.452 360.223 190.958 360.199C229.697 360.045 221.511 363.554 221.878 363.285C231.392 364.311 250.156 359.703 256.804 353.57L273.461 342.128C278.15 337.626 282.476 332.762 286.399 327.582C288.886 323.682 298.755 311.202 298.874 307.656C299.289 295.92 307.272 268.951 302.95 258.964C299.938 252.015 283.057 235.46 275.63 231.463L259.765 225.188C253.871 222.678 247.811 220.578 241.628 218.901C232.281 216.929 217.768 217.942 207.199 217.637C201.027 217.458 175.533 225.921 171.717 226.653C171.811 231.593 171.101 237.798 172.309 241.629C173.719 246.118 177.334 246.923 178.565 251.189C174.538 249.452 176.433 250.055 173.98 246.554C173.082 245.496 172.273 244.366 171.563 243.175L158.579 292.517C161.766 292.269 156.447 315.374 156.304 316.696L171.456 321.791L171.126 321.555Z" stroke="#515151" stroke-width="0.5669"/>
<path fill-rule="evenodd" clip-rule="evenodd" d="M260.832 275.039C263.225 273.784 262.797 273.169 265.287 271.091C269.752 267.345 273.804 262.841 281.113 261.897C293.602 260.254 296.978 268.846 298.258 277.78C287.631 275.983 284.088 273.678 282.441 284.657C281.839 291.215 280.316 297.656 277.916 303.79C273.261 314.888 263.261 325.797 248.179 323.943L243.997 330.762C242.562 333.255 241.416 335.264 239.933 337.651C232.86 349.021 231.983 344.67 225.587 344.377C223.492 346.727 221.248 348.941 218.869 351.005C214.141 354.445 211.879 349.859 208.976 350.167C207.259 350.355 206.465 351.595 203.338 351.302C200.114 350.981 200.933 349.919 198.858 349.021C194.831 347.272 190.873 350.306 187.155 346.764C189.726 343.902 208.609 340.156 218.254 329.331C225.445 321.259 234.082 315.42 238.595 302.147C232.575 302.656 216.264 309.039 203.065 303.66C197.663 301.464 198.206 301.228 197.77 296.015C193.996 295.267 190.432 293.702 187.33 291.431C185.744 289.268 187.427 288.415 187.261 286.597C187.13 285.141 178.553 278.029 176.988 275.735C173.968 271.327 177.962 269.566 179.915 266.871C177.898 263.831 175.673 260.932 173.258 258.196C169.764 253.589 169.491 251.731 172.961 248.01C175.296 245.517 171.647 241.39 170.058 238.319C168.223 234.749 165.688 231.557 167.738 227.694C173.009 226.795 172.936 227.576 177.665 228.344C177.237 221.595 173.589 217.329 175.602 209.838C177.926 213.335 179.251 209.838 182.866 220.521C196.55 260.938 243.666 261.056 253.368 283.758C253.687 276.174 245.289 268.395 240.609 265.536C237.178 263.454 233.625 261.579 229.97 259.921C220.422 255.468 217.85 255.858 208.752 248.576C198.279 240.198 208.442 237.397 208.776 234.432C209.037 232.126 205.649 223.737 209.449 221.797C211.642 220.687 212.603 222.778 216.24 222.85C216.167 217.035 214.238 212.957 218.881 209.094C220.953 211.468 221.144 215.417 221.748 218.902C223.537 229.194 228.893 237.197 235.395 245.456C239.578 250.751 243.487 255.219 247.836 260.384C250.062 263.019 251.97 265.37 254.054 267.842C255.631 269.696 258.439 274.011 260.832 275.039Z" fill="white"/>
</g>
<defs>
<clipPath id="clip0">
<rect width="334" height="371" fill="white" transform="translate(0.000244141)"/>
</clipPath>
</defs>
</svg>
