<svg width="187" height="186" viewBox="0 0 187 186" fill="none" xmlns="http://www.w3.org/2000/svg">
<path d="M134.5 174.5L136.5 177.5L134.5 178.5L134.5 174.5Z" fill="#080A1B"/>
<path d="M12 56.5005L12.5 54.5005L14.5 55.5005L14.5 56.5005L12 56.5005Z" fill="#080A1B"/>
<g filter="url(#filter0_d)">
<path d="M136.5 177.5L12.5 54.5005L97.5 54.5005L136.5 93.5005L136.5 177.5Z" fill="#080C2E"/>
</g>
<g clip-path="url(#clip0)">
<path d="M107.9 83.7769H92.5659V86.8649H107.9V83.7769Z" fill="#FDC455"/>
<path fill-rule="evenodd" clip-rule="evenodd" d="M98.1137 94.5719C97.5552 94.614 96.9938 94.5998 96.4382 94.5295L96.4313 93.927L96.6845 93.697L96.4303 93.701L96.4293 89.82C96.4173 88.8554 96.608 89.6246 96.7054 88.7752C96.5376 88.9036 96.623 88.8978 96.4521 89.0093L96.486 86.1001L97.177 86.1327C97.2459 86.4056 97.2698 86.6877 97.2477 86.9682C97.2146 87.2276 97.1465 87.4813 97.0451 87.7226C97.188 87.6159 97.0789 87.7484 97.1473 87.5646C97.3012 87.0477 97.3297 86.5019 97.2307 85.9719C97.1866 85.7751 97.1537 85.5759 97.1323 85.3753C97.0916 85.0525 97.1442 85.0909 97.0143 84.8401C96.9394 84.6801 96.8747 84.5155 96.8206 84.3474L96.6388 83.9078C96.6347 83.8911 96.6329 83.8762 96.6289 83.8595C96.6357 83.77 96.6166 83.6803 96.5739 83.6012C96.5311 83.5221 96.4665 83.4568 96.3876 83.4131C96.4758 83.7716 96.5205 83.7559 96.0875 83.7559L92.9104 83.7491C92.3144 83.742 92.4805 83.6709 92.4805 85.7161L92.4833 91.6243C92.4865 91.6977 92.4842 91.7713 92.4764 91.8445L92.4149 92.0252C92.1962 92.1911 90.3918 92.3164 89.9756 92.3225C89.7391 92.3253 89.4144 92.2345 88.6715 92.2355C87.6883 92.2366 87.5769 92.2661 87.6832 92.3028C87.9575 92.3966 90.7602 92.5278 91.7375 92.2869C91.9898 92.202 92.259 92.179 92.5222 92.2196C92.4128 93.6752 92.3711 93.3049 93.2491 94.2094L96.1163 97.8366C96.3487 98.049 96.1511 97.6738 96.323 98.1703C96.3776 98.3315 96.4671 98.4788 96.5851 98.6018C96.7908 98.8943 96.6319 98.844 96.9696 98.9891C96.8663 98.6327 96.5633 98.5654 96.445 98.1903C96.3438 97.8702 96.4033 97.3517 96.3954 96.9389C96.7153 96.8777 98.789 96.945 99.3064 96.9596C100.222 96.9786 101.134 97.0722 102.034 97.2392C102.423 97.3163 102.804 97.4286 103.173 97.5749L103.899 97.9729C104.595 98.4242 105.156 99.0544 105.522 99.7968C105.896 100.561 106.074 101.405 106.038 102.254C106.003 102.764 105.875 103.264 105.66 103.729C105.445 104.064 105.315 104.509 104.925 104.913L104.164 105.679C103.607 106.192 102.24 106.775 101.443 106.69C101.296 106.791 101.124 106.85 100.946 106.861C100.306 106.89 99.6645 106.881 99.0254 106.834C98.4801 106.836 96.8445 106.903 96.4232 106.805C96.307 106.415 96.2953 104.504 96.4341 104.144L96.2037 104.162L94.3167 101.641C94.139 101.441 94.0149 101.232 93.8519 101.038L93.6482 100.744C93.6417 100.731 93.6344 100.718 93.6264 100.706C93.5201 100.538 93.247 100.277 92.9224 99.7682C92.7843 99.5518 92.7604 99.6004 92.6671 99.4641C92.5201 99.2487 93.0177 99.227 92.7952 99.1056L92.663 99.2379C92.8718 99.4462 92.5349 99.8522 92.555 100.339C92.5707 100.751 92.5529 101.163 92.5529 101.576L92.5717 108.948C92.5837 108.957 92.6045 108.951 92.6114 108.968C92.6193 108.986 92.6422 108.984 92.6531 108.987L102.756 109L105.102 108.528C105.606 108.358 106.23 108.089 106.522 107.999C107.548 107.404 108.402 106.555 109.002 105.535L109.624 104.309C109.676 104.145 109.718 103.978 109.749 103.809C110.126 102.668 110.086 100.578 109.575 99.4611L108.947 98.2406C108.629 97.7427 108.244 97.291 107.801 96.8985C107.663 96.7741 107.581 96.7356 107.449 96.6249C107.401 96.5855 107.344 96.54 107.282 96.4907C107.017 96.3602 106.72 96.2121 106.374 96.0622C105.298 95.607 104.177 95.2639 103.03 95.0381C101.827 94.8213 100.61 94.6876 99.388 94.6382C98.924 94.6134 98.492 94.5947 98.1137 94.5719Z" fill="#FDC455"/>
<path fill-rule="evenodd" clip-rule="evenodd" d="M94.127 81.2934L94.3693 81.4375C94.731 81.6074 95.0608 81.8374 95.3446 82.1178L95.5424 82.3165C95.589 82.3637 95.6218 82.3973 95.6805 82.4616C95.7719 82.5581 95.8559 82.6614 95.9317 82.7705C96.0687 82.9563 96.2554 83.2672 96.3876 83.4126C96.4665 83.4565 96.5311 83.5219 96.5738 83.6012C96.6166 83.6804 96.6357 83.7701 96.6289 83.8598C96.6329 83.8764 96.6347 83.8914 96.6388 83.908L96.8216 84.3477C96.875 84.5159 96.9393 84.6805 97.0143 84.8404C97.1442 85.0912 97.0916 85.0527 97.1323 85.3756C97.1537 85.5761 97.1866 85.7753 97.2307 85.9722C97.3297 86.5021 97.3012 87.0479 97.1473 87.5648C97.0789 87.7486 97.188 87.6161 97.0451 87.7228C97.0013 87.7822 96.742 88.6443 96.7054 88.7754C96.608 89.6249 96.0835 89.0293 96.0954 89.9942L96.0329 93.8117L96.6845 93.6972C96.9613 93.6166 97.2237 93.4933 97.462 93.3319C97.6199 93.2371 97.7193 93.158 97.8287 93.0791L98.8594 92.2457C98.9679 92.1485 99.071 92.0456 99.1683 91.9375L99.224 91.8804C99.7291 91.2999 100.172 90.6691 100.547 89.998C100.592 89.9218 100.625 89.8397 100.646 89.754C100.764 89.365 101.033 88.7805 101.056 88.3459L101.228 86.1183C101.236 85.8998 101.233 86.1784 101.208 85.9297C101.195 85.7972 101.199 85.6797 101.189 85.5484C101.172 85.3091 101.143 85.0708 101.102 84.8345C101.086 84.7622 101.011 84.5726 101.003 84.5441L100.821 83.9358C100.733 83.7505 100.659 83.5586 100.601 83.362C100.555 83.2479 100.519 83.1299 100.494 83.0096C100.518 82.6738 99.6532 81.4136 99.3672 81.0976L98.6133 80.3314C98.4763 80.2029 98.331 80.0834 98.1783 79.9739C98.0959 79.9166 98.0412 79.8781 97.9449 79.8081C97.9349 79.801 97.922 79.7912 97.9121 79.7843C97.9022 79.7775 97.8892 79.7676 97.8793 79.7616C97.8704 79.7548 97.8564 79.7449 97.8465 79.7378L95.9396 78.7228C95.8323 78.6841 95.725 78.6743 95.6228 78.6379C95.2053 78.5082 94.7801 78.4049 94.3495 78.3287C93.8862 78.2258 93.4115 78.182 92.9371 78.1985L89.6577 78.0206C89.3389 77.9988 88.9288 78.0423 88.5584 78.0365C87.0011 78.0097 85.4229 78.0335 83.8626 78.0335C83.502 78.0335 83.1295 78.0168 82.8316 78.0304C82.065 78.0651 82.0739 77.8517 82.0233 78.2241L82.0271 101.745C82.0271 102.345 81.9577 103.6 82.0411 104.116L86.0069 104.108C85.9492 102.162 85.9988 100.15 85.9988 98.2021V86.2781C85.9988 85.5288 85.8925 80.6267 86.0695 80.3719C86.1757 80.2713 90.194 80.3246 90.5217 80.3583C91.5496 80.4647 92.4466 80.5289 93.3813 80.8677C93.6637 80.9405 93.9213 81.0876 94.127 81.2934Z" fill="#FDC455"/>
<path fill-rule="evenodd" clip-rule="evenodd" d="M94.0586 102.017C94.0962 101.887 94.3556 101.024 94.3991 100.964C94.4147 100.708 94.4493 100.453 94.5025 100.202C94.5581 99.9297 94.5678 99.65 94.5313 99.3744L93.84 99.3418L93.8054 102.251C93.977 102.14 93.8916 102.145 94.0586 102.017Z" fill="#FDC455"/>
<path fill-rule="evenodd" clip-rule="evenodd" d="M92.7228 92.0016C92.68 93.5826 92.6585 94.373 92.6582 94.3726C92.6582 94.3726 92.6612 94.3784 92.6671 94.3913C92.6739 94.4042 92.0612 94.4066 90.8288 94.3984C89.5972 94.3903 88.9814 94.386 88.9814 94.3855C88.9814 94.3855 88.744 94.0546 88.2713 93.392C87.7976 92.7284 87.4642 92.2399 87.2711 91.9265C87.0776 91.6125 86.981 91.4556 86.9812 91.4556H92.7286" fill="#FDC455"/>
<path fill-rule="evenodd" clip-rule="evenodd" d="M96.3956 88.4316L92.6046 89.8496L92.5708 102.238L96.3737 104.888L96.3956 88.4316Z" fill="#FDC455"/>
<path fill-rule="evenodd" clip-rule="evenodd" d="M96.3459 104.869C96.3059 105.515 96.3318 106.164 96.4232 106.805C96.8445 106.903 97.463 108.1 98.0084 108.098C101.256 108.085 100.57 108.378 100.601 108.356C101.398 108.442 102.971 108.057 103.529 107.544L104.925 106.588C105.318 106.212 105.681 105.805 106.01 105.373C106.218 105.047 107.045 104.004 107.055 103.708C107.09 102.727 107.759 100.474 107.397 99.639C107.144 99.0584 105.729 97.675 105.107 97.3411L103.777 96.8168C103.283 96.6071 102.775 96.4315 102.256 96.2914C101.473 96.1266 100.256 96.2113 99.3699 96.1858C98.8525 96.1709 96.7153 96.8779 96.3954 96.9391C96.4033 97.352 96.3438 97.8704 96.445 98.1905C96.5632 98.5656 96.8663 98.6329 96.9695 98.9893C96.6319 98.8442 96.7908 98.8945 96.5851 98.602C96.5098 98.5137 96.442 98.4192 96.3825 98.3197L95.294 102.443C95.5612 102.422 95.1153 104.352 95.1033 104.463L96.3736 104.889L96.3459 104.869Z" fill="#FDC455"/>
<path d="M96.3459 104.869C96.3059 105.515 96.3318 106.164 96.4232 106.805C96.8445 106.903 97.463 108.1 98.0084 108.098C101.256 108.085 100.57 108.378 100.601 108.356C101.398 108.442 102.971 108.057 103.529 107.544L104.925 106.588C105.318 106.212 105.681 105.805 106.01 105.373C106.218 105.047 107.045 104.004 107.055 103.708C107.09 102.727 107.759 100.474 107.397 99.639C107.144 99.0584 105.729 97.675 105.107 97.3411L103.777 96.8168C103.283 96.6071 102.775 96.4315 102.256 96.2914C101.473 96.1266 100.256 96.2113 99.3699 96.1858C98.8525 96.1709 96.7153 96.8779 96.3954 96.9391C96.4033 97.352 96.3438 97.8704 96.445 98.1905C96.5632 98.5656 96.8663 98.6329 96.9695 98.9893C96.6319 98.8442 96.7908 98.8945 96.5851 98.602C96.5098 98.5137 96.442 98.4192 96.3825 98.3197L95.294 102.443C95.5612 102.422 95.1153 104.352 95.1033 104.463L96.3736 104.889L96.3459 104.869Z" stroke="#FDC455" stroke-width="0.5669"/>
<path fill-rule="evenodd" clip-rule="evenodd" d="M103.866 100.982C104.067 100.877 104.031 100.826 104.24 100.652C104.614 100.339 104.954 99.9627 105.566 99.8838C106.613 99.7465 106.896 100.464 107.004 101.211C106.113 101.061 105.816 100.868 105.678 101.786C105.627 102.334 105.5 102.872 105.298 103.384C104.908 104.312 104.07 105.223 102.805 105.068L102.455 105.638C102.335 105.846 102.238 106.014 102.114 106.214C101.521 107.164 101.448 106.8 100.911 106.776C100.736 106.972 100.548 107.157 100.348 107.33C99.9519 107.617 99.7623 107.234 99.5189 107.26C99.375 107.275 99.3084 107.379 99.0463 107.354C98.776 107.328 98.8447 107.239 98.6708 107.164C98.3331 107.018 98.0013 107.271 97.6896 106.975C97.9052 106.736 99.4882 106.423 100.297 105.518C100.9 104.844 101.624 104.356 102.002 103.247C101.497 103.29 100.13 103.823 99.0234 103.373C98.5706 103.19 98.6161 103.17 98.5795 102.735C98.2631 102.672 97.9644 102.541 97.7043 102.352C97.5714 102.171 97.7125 102.1 97.6985 101.948C97.6876 101.826 96.9685 101.232 96.8373 101.04C96.5841 100.672 96.919 100.525 97.0827 100.299C96.9136 100.045 96.7271 99.8032 96.5246 99.5746C96.2317 99.1896 96.2088 99.0344 96.4997 98.7234C96.6955 98.5151 96.3896 98.1703 96.2564 97.9137C96.1025 97.6154 95.89 97.3487 96.0619 97.0259C96.5038 96.9508 96.4977 97.016 96.894 97.0802C96.8582 96.5162 96.5523 96.1598 96.7211 95.5339C96.9159 95.8261 97.027 95.5339 97.3301 96.4265C98.4773 99.8037 102.427 99.8135 103.24 101.711C103.267 101.077 102.563 100.427 102.171 100.188C101.883 100.014 101.585 99.8573 101.279 99.7187C100.478 99.3466 100.263 99.3792 99.5001 98.7707C98.6222 98.0707 99.4742 97.8366 99.5022 97.5889C99.524 97.3962 99.24 96.6952 99.5586 96.5332C99.7424 96.4404 99.823 96.6151 100.128 96.6212C100.122 96.1353 99.9601 95.7945 100.349 95.4717C100.523 95.6701 100.539 96 100.59 96.2913C100.74 97.1513 101.189 97.8199 101.734 98.5101C102.084 98.9525 102.412 99.3259 102.777 99.7574C102.963 99.9776 103.123 100.174 103.298 100.381C103.43 100.536 103.666 100.896 103.866 100.982Z" fill="#09102C"/>
</g>
<defs>
<filter id="filter0_d" x="0.500015" y="0.000488281" width="186" height="186" filterUnits="userSpaceOnUse" color-interpolation-filters="sRGB">
<feFlood flood-opacity="0" result="BackgroundImageFix"/>
<feColorMatrix in="SourceAlpha" type="matrix" values="0 0 0 0 0 0 0 0 0 0 0 0 0 0 0 0 0 0 127 0"/>
<feOffset dx="-2" dy="-2"/>
<feGaussianBlur stdDeviation="5"/>
<feColorMatrix type="matrix" values="0 0 0 0 0.0313726 0 0 0 0 0.0470588 0 0 0 0 0.180392 0 0 0 0.3 0"/>
<feBlend mode="normal" in2="BackgroundImageFix" result="effect1_dropShadow"/>
<feBlend mode="normal" in="SourceGraphic" in2="effect1_dropShadow" result="shape"/>
</filter>
<clipPath id="clip0">
<rect width="28" height="31" fill="white" transform="translate(82 78.0005)"/>
</clipPath>
</defs>
</svg>
