<svg width="187" height="186" viewBox="0 0 187 186" fill="none" xmlns="http://www.w3.org/2000/svg">
<path d="M16 134L13 136L12 134H16Z" fill="#080A1B"/>
<path d="M134 11.5L136 12L135 14H134V11.5Z" fill="#080A1B"/>
<g filter="url(#filter0_d)">
<path d="M13 136L136 12L136 97L97 136L13 136Z" fill="#080C2E"/>
</g>
<g clip-path="url(#clip0)">
<path d="M108.9 85.7763H93.5659V88.8643H108.9V85.7763Z" fill="#FDC455"/>
<path fill-rule="evenodd" clip-rule="evenodd" d="M99.1137 96.5717C98.5552 96.6138 97.9938 96.5995 97.4382 96.5292L97.4313 95.9268L97.6845 95.6968L97.4303 95.7008L97.4293 91.8198C97.4173 90.8551 97.608 91.6244 97.7054 90.775C97.5376 90.9034 97.623 90.8976 97.4521 91.0091L97.486 88.0998L98.177 88.1325C98.2459 88.4053 98.2698 88.6875 98.2477 88.968C98.2146 89.2273 98.1465 89.4811 98.0451 89.7223C98.1879 89.6156 98.0789 89.7481 98.1473 89.5643C98.3012 89.0474 98.3297 88.5017 98.2307 87.9717C98.1866 87.7748 98.1537 87.5756 98.1323 87.3751C98.0916 87.0522 98.1442 87.0907 98.0143 86.8399C97.9394 86.6798 97.8747 86.5153 97.8205 86.3472L97.6388 85.9076C97.6347 85.8909 97.6329 85.876 97.6288 85.8593C97.6357 85.7697 97.6166 85.6801 97.5739 85.601C97.5311 85.5219 97.4665 85.4566 97.3876 85.4128C97.4758 85.7713 97.5205 85.7556 97.0875 85.7556L93.9104 85.7488C93.3144 85.7417 93.4805 85.6707 93.4805 87.7158L93.4832 93.624C93.4865 93.6975 93.4842 93.7711 93.4764 93.8442L93.4149 94.025C93.1962 94.1908 91.3918 94.3162 90.9755 94.3223C90.7391 94.325 90.4144 94.2343 89.6715 94.2353C88.6883 94.2363 88.5769 94.2659 88.6832 94.3025C88.9575 94.3963 91.7602 94.5275 92.7375 94.2866C92.9898 94.2018 93.259 94.1787 93.5221 94.2194C93.4128 95.675 93.3711 95.3047 94.2491 96.2092L97.1163 99.8363C97.3487 100.049 97.1511 99.6735 97.323 100.17C97.3776 100.331 97.4671 100.479 97.5851 100.602C97.7908 100.894 97.6319 100.844 97.9695 100.989C97.8663 100.632 97.5632 100.565 97.445 100.19C97.3438 99.87 97.4033 99.3515 97.3954 98.9387C97.7153 98.8775 99.789 98.9447 100.306 98.9594C101.222 98.9784 102.134 99.0719 103.034 99.239C103.423 99.316 103.804 99.4284 104.173 99.5747L104.899 99.9726C105.595 100.424 106.156 101.054 106.522 101.797C106.896 102.56 107.074 103.405 107.038 104.254C107.003 104.764 106.875 105.264 106.66 105.729C106.445 106.064 106.315 106.509 105.925 106.913L105.164 107.679C104.607 108.192 103.24 108.774 102.443 108.689C102.296 108.791 102.124 108.85 101.946 108.861C101.306 108.89 100.665 108.881 100.025 108.834C99.4801 108.836 97.8444 108.903 97.4232 108.805C97.307 108.415 97.2953 106.504 97.4341 106.143L97.2037 106.161L95.3167 103.641C95.1389 103.441 95.0149 103.231 94.8519 103.038L94.6482 102.744C94.6416 102.731 94.6343 102.718 94.6264 102.706C94.5201 102.537 94.247 102.276 93.9223 101.768C93.7843 101.552 93.7604 101.6 93.6671 101.464C93.5201 101.248 94.0177 101.227 93.7952 101.105L93.663 101.238C93.8717 101.446 93.5349 101.852 93.5549 102.339C93.5707 102.75 93.5529 103.163 93.5529 103.576L93.5717 110.948C93.5837 110.957 93.6045 110.951 93.6114 110.967C93.6193 110.985 93.6422 110.983 93.6531 110.986L103.756 111L106.102 110.528C106.606 110.358 107.23 110.089 107.522 109.999C108.548 109.403 109.402 108.555 110.002 107.535L110.624 106.309C110.676 106.145 110.718 105.978 110.749 105.809C111.126 104.668 111.086 102.578 110.575 101.461L109.947 100.24C109.629 99.7425 109.244 99.2908 108.801 98.8982C108.663 98.7738 108.581 98.7354 108.449 98.6247C108.401 98.5852 108.344 98.5397 108.282 98.4904C108.017 98.36 107.72 98.2119 107.374 98.0619C106.298 97.6068 105.177 97.2636 104.03 97.0378C102.827 96.821 101.61 96.6874 100.388 96.6379C99.924 96.6131 99.492 96.5944 99.1137 96.5717Z" fill="#FDC455"/>
<path fill-rule="evenodd" clip-rule="evenodd" d="M95.127 83.2926L95.3693 83.4367C95.731 83.6066 96.0608 83.8367 96.3446 84.117L96.5424 84.3157C96.5889 84.363 96.6217 84.3966 96.6805 84.4608C96.7719 84.5574 96.8559 84.6606 96.9317 84.7697C97.0687 84.9556 97.2553 85.2665 97.3876 85.4118C97.4665 85.4558 97.5311 85.5212 97.5738 85.6004C97.6166 85.6797 97.6357 85.7694 97.6288 85.859C97.6329 85.8757 97.6347 85.8906 97.6388 85.9073L97.8216 86.3469C97.875 86.5152 97.9393 86.6797 98.0143 86.8396C98.1442 87.0904 98.0916 87.052 98.1323 87.3748C98.1537 87.5754 98.1866 87.7746 98.2307 87.9714C98.3297 88.5014 98.3011 89.0472 98.1473 89.5641C98.0789 89.7479 98.1879 89.6154 98.0451 89.7221C98.0013 89.7815 97.742 90.6435 97.7054 90.7747C97.608 91.6241 97.0835 91.0285 97.0954 91.9935L97.0329 95.811L97.6845 95.6965C97.9613 95.6159 98.2236 95.4926 98.462 95.3312C98.6199 95.2364 98.7193 95.1573 98.8287 95.0784L99.8594 94.2449C99.9679 94.1478 100.071 94.0449 100.168 93.9368L100.224 93.8796C100.729 93.2992 101.172 92.6684 101.547 91.9973C101.592 91.9211 101.625 91.8389 101.646 91.7533C101.764 91.3642 102.033 90.7798 102.056 90.3452L102.228 88.1175C102.236 87.8991 102.233 88.1777 102.208 87.9289C102.195 87.7965 102.199 87.6789 102.189 87.5477C102.172 87.3084 102.143 87.0701 102.102 86.8338C102.086 86.7615 102.011 86.5719 102.003 86.5433L101.821 85.9351C101.733 85.7497 101.659 85.5579 101.601 85.3612C101.555 85.2471 101.519 85.1292 101.494 85.0088C101.518 84.6731 100.653 83.4129 100.367 83.0969L99.6133 82.3307C99.4763 82.2021 99.331 82.0827 99.1783 81.9732C99.0959 81.9158 99.0412 81.8774 98.9449 81.8074C98.9349 81.8003 98.922 81.7904 98.9121 81.7836C98.9021 81.7768 98.8892 81.7669 98.8793 81.7608C98.8704 81.754 98.8564 81.7442 98.8465 81.7371L96.9396 80.7221C96.8323 80.6834 96.725 80.6736 96.6228 80.6372C96.2053 80.5074 95.78 80.4042 95.3495 80.328C94.8862 80.225 94.4115 80.1813 93.9371 80.1978L90.6577 80.0198C90.3389 79.9981 89.9288 80.0416 89.5583 80.0358C88.001 80.009 86.4229 80.0327 84.8625 80.0327C84.502 80.0327 84.1295 80.016 83.8315 80.0297C83.065 80.0643 83.0739 79.851 83.0233 80.2233L83.0271 103.745C83.0271 104.344 82.9577 105.599 83.0411 106.116L87.0069 106.107C86.9492 104.162 86.9988 102.149 86.9988 100.201V88.2774C86.9988 87.5281 86.8925 82.626 87.0695 82.3712C87.1757 82.2706 91.1939 82.3239 91.5217 82.3575C92.5496 82.464 93.4466 82.5282 94.3813 82.8669C94.6637 82.9398 94.9213 83.0868 95.127 83.2926Z" fill="#FDC455"/>
<path fill-rule="evenodd" clip-rule="evenodd" d="M95.0586 104.016C95.0962 103.886 95.3556 103.023 95.3991 102.964C95.4147 102.707 95.4492 102.453 95.5025 102.202C95.5581 101.929 95.5678 101.649 95.5313 101.374L94.84 101.341L94.8054 104.25C94.977 104.139 94.8916 104.145 95.0586 104.016Z" fill="#FDC455"/>
<path fill-rule="evenodd" clip-rule="evenodd" d="M93.7227 94.0012C93.68 95.5822 93.6585 96.3725 93.6582 96.3722C93.6582 96.3722 93.6612 96.378 93.6671 96.3909C93.6739 96.4038 93.0612 96.4061 91.8288 96.398C90.5972 96.3899 89.9814 96.3856 89.9814 96.3851C89.9814 96.3851 89.7439 96.0542 89.2713 95.3916C88.7976 94.728 88.4642 94.2395 88.2711 93.9261C88.0776 93.6121 87.981 93.4551 87.9812 93.4551H93.7286" fill="#FDC455"/>
<path fill-rule="evenodd" clip-rule="evenodd" d="M97.3955 90.4313L93.6046 91.8492L93.5708 104.237L97.3737 106.888L97.3955 90.4313Z" fill="#FDC455"/>
<path fill-rule="evenodd" clip-rule="evenodd" d="M97.3459 106.868C97.3059 107.515 97.3318 108.164 97.4231 108.805C97.8444 108.903 98.463 110.1 99.0084 110.097C102.256 110.085 101.57 110.378 101.601 110.355C102.398 110.441 103.971 110.056 104.529 109.544L105.925 108.588C106.318 108.211 106.681 107.805 107.01 107.372C107.218 107.046 108.045 106.003 108.055 105.707C108.09 104.726 108.759 102.473 108.397 101.639C108.144 101.058 106.729 99.6745 106.107 99.3406L104.777 98.8163C104.283 98.6066 103.775 98.431 103.256 98.291C102.473 98.1261 101.256 98.2108 100.37 98.1853C99.8525 98.1704 97.7153 98.8775 97.3954 98.9386C97.4033 99.3515 97.3438 99.87 97.445 100.19C97.5632 100.565 97.8663 100.632 97.9695 100.989C97.6319 100.844 97.7908 100.894 97.5851 100.602C97.5098 100.513 97.442 100.419 97.3825 100.319L96.294 104.442C96.5612 104.421 96.1153 106.352 96.1033 106.462L97.3736 106.888L97.3459 106.868Z" fill="#FDC455"/>
<path d="M97.3459 106.868C97.3059 107.515 97.3318 108.164 97.4231 108.805C97.8444 108.903 98.463 110.1 99.0084 110.097C102.256 110.085 101.57 110.378 101.601 110.355C102.398 110.441 103.971 110.056 104.529 109.544L105.925 108.588C106.318 108.211 106.681 107.805 107.01 107.372C107.218 107.046 108.045 106.003 108.055 105.707C108.09 104.726 108.759 102.473 108.397 101.639C108.144 101.058 106.729 99.6745 106.107 99.3406L104.777 98.8163C104.283 98.6066 103.775 98.431 103.256 98.291C102.473 98.1261 101.256 98.2108 100.37 98.1853C99.8525 98.1704 97.7153 98.8775 97.3954 98.9386C97.4033 99.3515 97.3438 99.87 97.445 100.19C97.5632 100.565 97.8663 100.632 97.9695 100.989C97.6319 100.844 97.7908 100.894 97.5851 100.602C97.5098 100.513 97.442 100.419 97.3825 100.319L96.294 104.442C96.5612 104.421 96.1153 106.352 96.1033 106.462L97.3736 106.888L97.3459 106.868Z" stroke="#FDC455" stroke-width="0.5669"/>
<path fill-rule="evenodd" clip-rule="evenodd" d="M104.866 102.982C105.067 102.877 105.031 102.825 105.24 102.652C105.614 102.339 105.954 101.962 106.566 101.883C107.613 101.746 107.896 102.464 108.004 103.211C107.113 103.061 106.816 102.868 106.678 103.785C106.627 104.333 106.5 104.871 106.298 105.384C105.908 106.311 105.07 107.223 103.805 107.068L103.455 107.638C103.335 107.846 103.238 108.014 103.114 108.213C102.521 109.163 102.448 108.8 101.911 108.775C101.736 108.972 101.548 109.157 101.348 109.329C100.952 109.617 100.762 109.233 100.519 109.259C100.375 109.275 100.308 109.379 100.046 109.354C99.776 109.327 99.8447 109.238 99.6707 109.163C99.3331 109.017 99.0013 109.271 98.6896 108.975C98.9052 108.736 100.488 108.423 101.297 107.518C101.9 106.844 102.624 106.356 103.002 105.247C102.497 105.289 101.13 105.823 100.023 105.373C99.5706 105.19 99.6161 105.17 99.5795 104.734C99.2631 104.672 98.9644 104.541 98.7043 104.351C98.5714 104.171 98.7125 104.099 98.6985 103.947C98.6875 103.826 97.9685 103.231 97.8373 103.04C97.5841 102.671 97.9189 102.524 98.0827 102.299C97.9136 102.045 97.7271 101.803 97.5246 101.574C97.2317 101.189 97.2088 101.034 97.4997 100.723C97.6955 100.515 97.3896 100.17 97.2564 99.9134C97.1025 99.6151 96.89 99.3484 97.0619 99.0256C97.5037 98.9505 97.4976 99.0157 97.894 99.0799C97.8582 98.5159 97.5523 98.1595 97.7211 97.5336C97.9159 97.8258 98.027 97.5336 98.3301 98.4262C99.4773 101.803 103.427 101.813 104.24 103.71C104.267 103.076 103.563 102.427 103.171 102.188C102.883 102.014 102.585 101.857 102.279 101.718C101.478 101.346 101.263 101.379 100.5 100.77C99.6222 100.07 100.474 99.8363 100.502 99.5886C100.524 99.3959 100.24 98.6949 100.559 98.5329C100.742 98.4401 100.823 98.6148 101.128 98.6209C101.122 98.135 100.96 97.7942 101.349 97.4714C101.523 97.6698 101.539 97.9997 101.59 98.2909C101.74 99.151 102.189 99.8196 102.734 100.51C103.084 100.952 103.412 101.326 103.777 101.757C103.963 101.977 104.123 102.174 104.298 102.38C104.43 102.535 104.666 102.896 104.866 102.982Z" fill="#09102C"/>
</g>
<defs>
<filter id="filter0_d" x="0.5" y="0" width="186" height="186" filterUnits="userSpaceOnUse" color-interpolation-filters="sRGB">
<feFlood flood-opacity="0" result="BackgroundImageFix"/>
<feColorMatrix in="SourceAlpha" type="matrix" values="0 0 0 0 0 0 0 0 0 0 0 0 0 0 0 0 0 0 127 0"/>
<feOffset dx="-2" dy="-2"/>
<feGaussianBlur stdDeviation="5"/>
<feColorMatrix type="matrix" values="0 0 0 0 0.0313726 0 0 0 0 0.0470588 0 0 0 0 0.180392 0 0 0 0.3 0"/>
<feBlend mode="normal" in2="BackgroundImageFix" result="effect1_dropShadow"/>
<feBlend mode="normal" in="SourceGraphic" in2="effect1_dropShadow" result="shape"/>
</filter>
<clipPath id="clip0">
<rect width="28" height="31" fill="white" transform="translate(83 80)"/>
</clipPath>
</defs>
</svg>
