<svg width="48" height="54" viewBox="0 0 48 54" fill="none" xmlns="http://www.w3.org/2000/svg">
<g clip-path="url(#clip0)">
<path d="M44.3993 10.3267H18.1129V15.6061H44.3993V10.3267Z" fill="white"/>
<path fill-rule="evenodd" clip-rule="evenodd" d="M27.6235 28.7833C26.666 28.8552 25.7037 28.8308 24.7511 28.7107L24.7394 27.6807L25.1735 27.2874L24.7376 27.2943L24.7359 20.6591C24.7154 19.0098 25.0423 20.325 25.2092 18.8728C24.9215 19.0923 25.068 19.0824 24.7751 19.273L24.8331 14.2991L26.0177 14.3549C26.1358 14.8214 26.1768 15.3038 26.1389 15.7833C26.0822 16.2268 25.9654 16.6606 25.7915 17.0731C26.0365 16.8907 25.8495 17.1171 25.9667 16.8029C26.2306 15.9192 26.2795 14.9861 26.1097 14.08C26.0341 13.7434 25.9778 13.4029 25.941 13.06C25.8713 12.5081 25.9615 12.5738 25.7388 12.145C25.6105 11.8714 25.4995 11.59 25.4067 11.3026L25.095 10.551C25.0881 10.5226 25.085 10.497 25.078 10.4685C25.0898 10.3154 25.0571 10.1622 24.9838 10.0269C24.9105 9.89163 24.7996 9.78 24.6644 9.70523C24.8156 10.3181 24.8923 10.2913 24.1501 10.2913L18.7035 10.2796C17.6819 10.2675 17.9665 10.1461 17.9665 13.6426L17.9713 23.7437C17.9768 23.8693 17.9729 23.9952 17.9595 24.1202L17.854 24.4292C17.4792 24.7127 14.3859 24.9271 13.6724 24.9375C13.267 24.9422 12.7104 24.7871 11.4368 24.7888C9.75136 24.7905 9.56045 24.8411 9.74264 24.9038C10.2129 25.0641 15.0174 25.2884 16.6929 24.8765C17.1254 24.7315 17.5868 24.6921 18.038 24.7616C17.8506 27.2502 17.7791 26.617 19.2841 28.1635L24.1993 34.3648C24.5977 34.7279 24.259 34.0864 24.5537 34.9353C24.6473 35.2108 24.8007 35.4627 25.0031 35.6731C25.3557 36.1731 25.0833 36.0871 25.6621 36.3352C25.4851 35.7258 24.9656 35.6108 24.7629 34.9694C24.5894 34.4223 24.6914 33.5358 24.6779 32.83C25.2262 32.7254 28.7811 32.8404 29.6681 32.8654C31.2371 32.898 32.8009 33.0578 34.3436 33.3435C35.0108 33.4752 35.6644 33.6673 36.2963 33.9174L37.5411 34.5977C38.7351 35.3693 39.6964 36.4468 40.3232 37.7161C40.9652 39.0218 41.2694 40.4654 41.2084 41.9167C41.1488 42.7896 40.929 43.6444 40.5599 44.4391C40.192 45.0113 39.9688 45.7729 39.2998 46.4631L37.9957 47.7736C37.0403 48.6496 34.6975 49.6459 33.3306 49.5007C33.0792 49.674 32.7846 49.7755 32.479 49.7941C31.3815 49.8435 30.282 49.8278 29.1865 49.747C28.2515 49.7505 25.4476 49.865 24.7254 49.6982C24.5262 49.0313 24.5062 45.7642 24.7442 45.1479L24.3493 45.1786L21.1143 40.8699C20.8096 40.5272 20.5969 40.1693 20.3175 39.8382L19.9684 39.3352C19.9571 39.3132 19.9446 39.2918 19.9309 39.2712C19.7487 38.9825 19.2806 38.5364 18.724 37.6673C18.4873 37.2973 18.4464 37.3803 18.2864 37.1473C18.0345 36.7791 18.8875 36.7419 18.5061 36.5344L18.2794 36.7605C18.6373 37.1166 18.0598 37.8108 18.0942 38.6432C18.1212 39.3468 18.0907 40.0526 18.0907 40.7584L18.123 53.3616C18.1435 53.3767 18.1792 53.3668 18.191 53.3953C18.2045 53.426 18.2437 53.4225 18.2624 53.4277L35.5814 53.451L39.6027 52.6441C40.4679 52.3537 41.5371 51.8929 42.0374 51.7391C43.7966 50.7212 45.2609 49.2703 46.2888 47.5268L47.3563 45.4301C47.4447 45.1498 47.5158 44.8645 47.5694 44.5757C48.2162 42.6255 48.1482 39.0517 47.2713 37.1421L46.1951 35.0554C45.6502 34.2042 44.989 33.432 44.2303 32.7609C43.9936 32.5482 43.8524 32.4825 43.6261 32.2932C43.5442 32.2258 43.4475 32.148 43.3398 32.0637C42.8869 31.8407 42.3765 31.5874 41.7838 31.3311C39.939 30.553 38.0179 29.9662 36.0513 29.5802C33.9886 29.2096 31.9025 28.9811 29.808 28.8965C29.0126 28.8541 28.272 28.8222 27.6235 28.7833Z" fill="white"/>
<path fill-rule="evenodd" clip-rule="evenodd" d="M20.7891 6.0806L21.2045 6.32696C21.8245 6.61743 22.39 7.01078 22.8765 7.49003L23.2156 7.82974C23.2953 7.91056 23.3516 7.96805 23.4522 8.07783C23.609 8.24289 23.7529 8.41943 23.8829 8.60595C24.1178 8.92365 24.4377 9.45528 24.6644 9.70376C24.7996 9.77887 24.9104 9.89073 24.9837 10.0262C25.057 10.1616 25.0897 10.315 25.078 10.4683C25.085 10.4968 25.088 10.5224 25.095 10.5508L25.4084 11.3025C25.4999 11.5901 25.6103 11.8715 25.7388 12.1448C25.9615 12.5736 25.8713 12.5079 25.941 13.0598C25.9778 13.4027 26.0341 13.7432 26.1097 14.0798C26.2795 14.9859 26.2305 15.919 25.9667 16.8027C25.8495 17.1169 26.0365 16.8905 25.7915 17.0729C25.7165 17.1744 25.272 18.6483 25.2092 18.8725C25.0423 20.3248 24.1431 19.3065 24.1636 20.9562L24.0564 27.483L25.1735 27.2872C25.6479 27.1493 26.0977 26.9386 26.5063 26.6627C26.777 26.5006 26.9474 26.3653 27.1348 26.2305L28.9018 24.8055C29.0878 24.6394 29.2645 24.4635 29.4314 24.2786L29.5269 24.1809C30.3927 23.1886 31.1526 22.1101 31.7946 20.9627C31.8713 20.8325 31.9287 20.692 31.9651 20.5456C32.166 19.8804 32.6271 18.8812 32.6681 18.1382L32.9628 14.3296C32.9763 13.9562 32.971 14.4325 32.9288 14.0072C32.9065 13.7807 32.9118 13.5797 32.8948 13.3554C32.8667 12.9463 32.8172 12.5389 32.7466 12.1348C32.7191 12.0112 32.5897 11.6871 32.5761 11.6382L32.2645 10.5983C32.1133 10.2814 31.9869 9.95343 31.8866 9.61724C31.8079 9.42218 31.747 9.22054 31.7044 9.01473C31.7454 8.44076 30.2626 6.28622 29.7722 5.74596L28.4799 4.43594C28.2451 4.21619 27.996 4.01203 27.7342 3.82479C27.5929 3.72668 27.4992 3.66099 27.334 3.54126C27.317 3.52916 27.2948 3.51231 27.2778 3.50064C27.2608 3.48897 27.2386 3.47211 27.2216 3.46174C27.2063 3.45007 27.1824 3.43321 27.1654 3.42111L23.8964 1.6858C23.7125 1.61967 23.5285 1.60284 23.3533 1.54061C22.6377 1.3188 21.9086 1.14225 21.1705 1.01202C20.3763 0.836002 19.5626 0.761202 18.7493 0.789434L13.1275 0.485162C12.581 0.447966 11.8779 0.522327 11.2429 0.512386C8.57321 0.466572 5.86782 0.507203 3.19293 0.507203C2.57488 0.507203 1.93633 0.47868 1.4255 0.502019C0.111378 0.561231 0.126633 0.196445 0.039896 0.833086L0.0464403 41.0469C0.0464403 42.0717 -0.0725533 44.2176 0.0704095 45.1006L6.86899 45.0855C6.77005 41.7596 6.85504 38.3188 6.85504 34.9891V14.6029C6.85504 13.3218 6.67285 4.94087 6.97621 4.50521C7.1584 4.33319 14.0468 4.42439 14.6086 4.48187C16.3708 4.66383 17.9085 4.77361 19.5107 5.35277C19.995 5.47738 20.4365 5.72875 20.7891 6.0806Z" fill="white"/>
<path fill-rule="evenodd" clip-rule="evenodd" d="M20.6719 41.5113C20.7364 41.2887 21.181 39.8132 21.2555 39.7116C21.2823 39.2735 21.3416 38.838 21.4329 38.4085C21.5282 37.9428 21.5449 37.4646 21.4822 36.9934L20.2971 36.9377L20.2378 41.9115C20.532 41.7209 20.3856 41.7309 20.6719 41.5113Z" fill="white"/>
<path fill-rule="evenodd" clip-rule="evenodd" d="M18.3818 24.3886C18.3086 27.0916 18.2717 28.4428 18.2711 28.4423C18.2711 28.4423 18.2764 28.4522 18.2864 28.4742C18.2982 28.4963 17.2477 28.5003 15.1351 28.4863C13.0238 28.4725 11.9681 28.4652 11.9681 28.4643C11.9681 28.4643 11.561 27.8985 10.7508 26.7657C9.93874 25.6312 9.36718 24.796 9.03608 24.2602C8.70439 23.7234 8.53876 23.455 8.53919 23.455H18.3919" fill="white"/>
<path fill-rule="evenodd" clip-rule="evenodd" d="M24.6781 18.2852L18.1794 20.7095L18.1214 41.8893L24.6406 46.421L24.6781 18.2852Z" fill="white"/>
<path fill-rule="evenodd" clip-rule="evenodd" d="M24.5929 46.3875C24.5244 47.4926 24.5688 48.6019 24.7254 49.6982C25.4476 49.865 26.5081 51.9115 27.443 51.9081C33.0103 51.886 31.8339 52.3874 31.8866 52.3489C33.2539 52.4954 35.9506 51.8372 36.906 50.9611L39.2998 49.3265C39.9736 48.6833 40.5954 47.9885 41.1591 47.2484C41.5166 46.6913 42.9349 44.9085 42.9518 44.4019C43.0116 42.7254 44.1588 38.8727 43.5376 37.446C43.1048 36.4532 40.6788 34.0882 39.6114 33.5172L37.3314 32.6208C36.4845 32.2623 35.6136 31.9622 34.7249 31.7227C33.3816 31.4409 31.296 31.5857 29.777 31.542C28.8901 31.5165 25.2262 32.7254 24.6779 32.83C24.6914 33.5358 24.5894 34.4222 24.7629 34.9694C24.9655 35.6108 25.4851 35.7258 25.6621 36.3352C25.0832 36.0871 25.3556 36.1731 25.003 35.6731C24.874 35.522 24.7578 35.3605 24.6557 35.1903L22.7897 42.2391C23.2478 42.2037 22.4833 45.5045 22.4628 45.6933L24.6404 46.4212L24.5929 46.3875Z" fill="white"/>
<path d="M24.5929 46.3875C24.5244 47.4926 24.5688 48.6019 24.7254 49.6982C25.4476 49.865 26.5081 51.9115 27.443 51.9081C33.0103 51.886 31.8339 52.3874 31.8866 52.3489C33.2539 52.4954 35.9506 51.8372 36.906 50.9611L39.2998 49.3265C39.9736 48.6833 40.5954 47.9885 41.1591 47.2484C41.5166 46.6913 42.9349 44.9085 42.9518 44.4019C43.0116 42.7254 44.1588 38.8727 43.5376 37.446C43.1048 36.4532 40.6788 34.0882 39.6114 33.5172L37.3314 32.6208C36.4845 32.2623 35.6136 31.9622 34.7249 31.7227C33.3816 31.4409 31.296 31.5857 29.777 31.542C28.8901 31.5165 25.2262 32.7254 24.6779 32.83C24.6914 33.5358 24.5894 34.4222 24.7629 34.9694C24.9655 35.6108 25.4851 35.7258 25.6621 36.3352C25.0832 36.0871 25.3556 36.1731 25.003 35.6731C24.874 35.522 24.7578 35.3605 24.6557 35.1903L22.7897 42.2391C23.2478 42.2037 22.4833 45.5045 22.4628 45.6933L24.6404 46.4212L24.5929 46.3875Z" stroke="white" stroke-width="0.5669"/>
<path fill-rule="evenodd" clip-rule="evenodd" d="M37.4849 39.7423C37.8287 39.563 37.7673 39.4752 38.1251 39.1783C38.7667 38.6432 39.349 37.9997 40.3995 37.8648C42.1943 37.6301 42.6795 38.8576 42.8634 40.1339C41.3361 39.8772 40.827 39.5478 40.5904 41.1163C40.5038 42.0531 40.2849 42.9732 39.9401 43.8496C39.271 45.4349 37.834 46.9935 35.6664 46.7285L35.0654 47.7027C34.8592 48.0589 34.6945 48.3459 34.4813 48.6869C33.4649 50.3111 33.3389 49.6896 32.4197 49.6477C32.1186 49.9834 31.7961 50.2997 31.4543 50.5946C30.7748 51.086 30.4496 50.4308 30.0325 50.4749C29.7858 50.5017 29.6716 50.6789 29.2222 50.637C28.7589 50.5912 28.8766 50.4395 28.5784 50.3111C27.9996 50.0613 27.4308 50.4948 26.8965 49.9887C27.2661 49.5798 29.9797 49.0447 31.3658 47.4983C32.3992 46.3452 33.6405 45.511 34.2891 43.6149C33.4239 43.6875 31.0799 44.5995 29.183 43.831C28.4067 43.5172 28.4847 43.4835 28.422 42.7388C27.8796 42.632 27.3675 42.4085 26.9217 42.084C26.6938 41.775 26.9357 41.6531 26.9117 41.3934C26.893 41.1855 25.6603 40.1694 25.4354 39.8418C25.0013 39.212 25.5754 38.9605 25.856 38.5754C25.5661 38.1411 25.2465 37.7271 24.8993 37.3362C24.3972 36.678 24.358 36.4126 24.8566 35.881C25.1922 35.5248 24.6679 34.9353 24.4395 34.4966C24.1758 33.9866 23.8114 33.5306 24.1061 32.9787C24.8636 32.8503 24.8531 32.9618 25.5326 33.0716C25.4712 32.1074 24.9468 31.498 25.2363 30.4278C25.5701 30.9275 25.7606 30.4278 26.2801 31.9539C28.2468 37.7278 35.0179 37.7447 36.4122 40.9879C36.458 39.9044 35.2511 38.7932 34.5785 38.3847C34.0855 38.0873 33.5749 37.8194 33.0495 37.5826C31.6774 36.9464 31.3078 37.0021 30.0002 35.9618C28.4952 34.765 29.9558 34.3648 30.0037 33.9412C30.0412 33.6119 29.5543 32.4134 30.1005 32.1363C30.4156 31.9777 30.5538 32.2764 31.0764 32.2867C31.0659 31.456 30.7887 30.8734 31.456 30.3215C31.7537 30.6608 31.7812 31.2248 31.8679 31.7227C32.1251 33.1931 32.8948 34.3363 33.8293 35.5162C34.4303 36.2726 34.9922 36.9109 35.6172 37.6487C35.9371 38.0252 36.2113 38.361 36.5107 38.7141C36.7374 38.979 37.141 39.5954 37.4849 39.7423Z" fill="#09102C"/>
</g>
<defs>
<clipPath id="clip0">
<rect width="48" height="53" fill="white" transform="translate(0 0.45105)"/>
</clipPath>
</defs>
</svg>
